<svg xmlns="http://www.w3.org/2000/svg" width="200" height="209" fill="none" viewBox="0 0 200 209"> <mask id="a" width="200" height="195" x="0" y="14" maskUnits="userSpaceOnUse" style="mask-type:luminance"> <path fill="#fff" d="M100 208.999c55.228 0 100-43.546 100-97.263 0-53.717-44.772-97.263-100-97.263S0 58.019 0 111.736c0 53.717 44.772 97.263 100 97.263Z"/> </mask> <g mask="url(#a)"> <path fill="#DCCFEA" d="M101.392-1.558H-12.963v119.829h114.355V-1.558Z"/> <path fill="#321242" d="M222.818 118.645H108.463v119.828h114.355V118.645Z"/> <path fill="#4F1E68" d="M118.227 94.204H-29.727v156.55h147.954V94.204Z"/> <path fill="#fff" d="M230.518 128.67H96.772c-7.845 0-14.045-6.19-14.045-13.821L82.563-27.88h147.955v156.55Z"/> <path fill="#DD858C" d="m63.6 168.466 2.44 43.735 17.08.389v-41.412c0-6.103-4.907-14.385-10.109-12.883-6.172 1.781-9.41 4.746-9.411 10.171Z"/> <path fill="#6C2B8C" d="M-4.277 209.686s-.008-40.69-.008-47.533c0-6.844 4.87-13.523 10.177-16.198 0 0 9.96-3.982 16.171-5.794 6.406-2.337 7.945-2.154 9.311-5.062l17.313 3.115c.115.302 10.334 3.71 13.493 4.763 16.734 5.578 20.94 9.214 20.94 28.341l-21.263-.142s15.772 27.234 15.772 28.14l3.887 13.078-85.793.195-.008-2.903h.008Z"/> <path fill="#fff" d="m25.712 138.642 11.087 32.469h-9.14l-9.79-29.656c-.356-.682.017-1.502.771-1.709l5.625-1.726a1.259 1.259 0 0 1 1.447.622Zm36.034 4.042 9.148 28.426h-8.438l-8.349-30.195c-.177-.656.48-1.234 1.127-.993l5.998 2.235c.24.095.434.285.505.527h.01Z"/> <path fill="#F4F6FA" d="M27.668 171.118h43.439l11.418 41.242H27.868l-.2-41.242Z"/> <path fill="#F5B5BD" d="m38.878 212.395-11.21-41.292H4.848l16.415 41.292"/> <path fill="#321242" d="M62.369 99.837c1.357-3.728.967-10.46-2.085-12.418-6.664-4.28-18.402-4.048-18.402-4.048l7.684 15.31 12.812 1.156h-.01Z"/> <path fill="#F5B5BD" d="M31.288 130.234c0-1.494-.027-2.987-1.598-4.481l-6.757-10.056c-2.99-2.813-6.631-6.118-6.942-10.157-.417-5.42 1.926-10.693 6.273-14.101 0 0 8.616-6.533 21.153-6.248 12.546.284 19.218 8.845 19.564 18.83 0 .25.151.613.31.811l7.267 8.561c.63.742.409 1.847-.46 2.304l-2.29 1.2c-.426.224-.985 1.027-.825 1.475 0 0 .328 3.565.434 5.36.134 2.33.497 5.117.497 8.112 0 2.994-3.841 3.857-7.142 3.478l-4.8-.579-.621 4.022c-.506 3.642-2.006 21.29-8.145 15.094-6.14-6.197-15.918-18.537-15.918-18.537v-5.088Z"/> <path stroke="#DD858C" stroke-miterlimit="10" stroke-width="2.269" d="M57.495 121.47c2.05.639 4.214.916 6.361.812"/> <path fill="#DD858C" d="M58.407 108.469c.567-.273.685-1.163.266-1.987-.42-.824-1.22-1.271-1.786-.999-.567.273-.685 1.163-.266 1.987.42.824 1.22 1.271 1.786.999Z"/> <path fill="#321242" d="M33.95 83.994c9.05-1.787 20.646.267 23.388 6.368 0 0-15.634-3.408-10.834 4.272 6.894 11.021-1.57 15.491-1.57 15.491l-5.998 12.591c-.78 1.993-2.68 3.374-4.871 3.538H30.27c-3.169-3.081-6.385-6.649-9.143-10.08-2.648-3.295-4.817-6.593-5.128-10.632-.417-5.419-.923-17.82 17.95-21.548Z"/> <path fill="#F5B5BD" d="M41.597 120.756s-.736-2.529-2.014-3.417c-3.62-2.52-4.197-4.963-4.161-7.353.035-2.425 2.342-4.444 4.8-4.289 4.57.276 5.013 4.66 5.128 8.5"/> <path fill="#DD858C" d="M42.867 110.901c-.772.19-1.26.941-1.1 1.7l.416 2.02a.997.997 0 0 1 0 .397c-.133.802-1.073 1.216-1.774.768-1.171-.76-2.644-1.951-2.99-3.271-.595-2.261 0-4.057 1.473-4.824 2.75-.88 3.966.578 4.551 1.907.24.544.01 1.174-.576 1.32v-.017Zm13.13 23.845-9.312-1.203 8.558 6.295.754-5.092Z"/> <path fill="#37F826" d="M118.236 101.86c-3.1-2.945-4.836-4.598-7.927-7.551H82.563l.227 28.728c2.355 2.246 3.682 3.501 6.037 5.747h29.409v-26.933.009Z"/> </g> <path fill="#261230" d="M145.628 44.519h-17.355v31.69h17.355v-31.69Zm-19.382-17.818c5.507 0 9.972-4.342 9.972-9.7 0-5.357-4.465-9.7-9.972-9.7-5.508 0-9.973 4.344-9.973 9.7 0 5.358 4.465 9.7 9.973 9.7Z"/> <path fill="#B89FD4" d="m171.273 129.04-53.036-.239-.018-42.963c-.382-5.385 1.254-10.717 4.618-15.014l18.645-17.34c-.091.204 13.764-2.36 18.137-8.302l13.518 9.69c7.463 5.297 10.909 12.813 8.8 20.841-.055.204-10.655 53.327-10.655 53.327h-.009Z"/> <path fill="#F5B5BD" d="M147.519 60.911c-1.836 2.396-5.746 1.159-5.8-1.83l-.282-12.335s-5.973 3.236-6.473 3.475c-2.218 1.035-6.209.592-8.2-3.466-1.991-4.059-2.554-7.94-2.554-7.94-2.773-.195-5.191.504-4.973-1.53.218-2.042 2.282-5.243 1.782-7.445-1.118-2.378-.909-9.894-.591-12.335 1.045-7.931 7.009-14.81 15.554-16.773 10.428-2.388 21.11 3.616 24.173 13.608a19.27 19.27 0 0 1 .518 9.31c-1.054 5.474-1.081 21.54-1.081 21.54l-12.091 15.73.018-.009Z"/> <path fill="#DD858C" d="M132.337 39.294c-.482-1.583-4.319.857-4.319.857.491 3.387 4.8.725 4.319-.857Zm-4.342-8.602c.54-.26.654-1.106.256-1.89-.399-.783-1.16-1.207-1.7-.947-.54.26-.654 1.106-.256 1.89.399.783 1.16 1.207 1.7.947Zm16.723-6.529c.173-.406.573-.69.973-.901.609-.319 1.291-.54 1.982-.496.691.045 1.382.38 1.718.973.255.442.291.964.291 1.468 0 .893-.118 1.83-.645 2.555-.21.274-.482.522-.819.628-.336.106-.736.053-.991-.186-.763-.725.273-2.228-.772-2.803-.6-.336-2.364.213-1.737-1.229v-.009Zm-3.272 22.592 6.337-3.528-6.337 10v-6.472Z"/> <path fill="#261230" d="M143.119 23.2c.59-1.707 2.263-2.892 4.109-2.927 2.872-.044 4.881 1.618 4.445 5.049a12.242 12.242 0 0 1-.863 3.12c-1.764 4.148-.319 10.62 8.79 16.739 4.891 3.29 8.4 6.021 8.4 6.021V25.136C168 .66 146.419-1.656 135.991.732c-8.545 1.954-14.509 8.842-15.554 16.773 1.645 1.521 7.009 8.1 22.663 8.427a4.233 4.233 0 0 1 .01-2.724l.009-.008Z"/> <path fill="#261230" d="m119.127 10.22 11.291-7.34 9.864 5.527-19.837 9.09-1.318-7.277Z"/> <path fill="#F5B5BD" d="m175.41 79.214-22.972 33.034c-1.655 2.379-4.009 4.289-6.809 5.208a15.2 15.2 0 0 1-.919.265c-4.636 1.203-9.572-.256-13.036-3.475l-27.173-25.253c-2.291-1.689 5.137-8.789 7.255-7.55l27.5 20.124 20.245-35.29c3.319-4.075 9.282-5.021 13.764-2.2 5.309 3.35 6.327 10.504 2.145 15.128v.01Z"/> <mask id="b" width="74" height="57" x="104" y="62" maskUnits="userSpaceOnUse" style="mask-type:luminance"> <path fill="#fff" d="m175.411 79.215-22.973 33.034c-1.655 2.379-4.009 4.289-6.809 5.208a15.2 15.2 0 0 1-.919.265c-4.636 1.203-9.572-.256-13.036-3.475l-27.173-25.253c-2.29-1.689 5.137-8.789 7.255-7.55l27.5 20.124 20.245-35.29c3.319-4.075 9.282-5.021 13.764-2.2 5.309 3.35 6.327 10.504 2.146 15.128v.009Z"/> </mask> <g mask="url(#b)"> <path stroke="#DD858C" stroke-miterlimit="10" stroke-width="2.325" d="m137.865 99.251 6.437 5.677"/> </g> <path fill="#F5B5BD" d="M94.091 74.414c7.564 0 11.291 4.5 11.291 4.5s.346-4.2.546-5.128c.127-.593.218-1.212.545-1.733 1.018-1.636 1.936-.982 2.545.256.764 1.548.719 2.582.691 4.236-.054 3.687 2.046 4.89 2.046 4.89l-7.255 7.55c-2.418-1.44-7.073-2.75-10.054-3.784-1.555-.54-3.746-1.477-4.728-2.149-.39-.265-.681-.742-.572-1.202-.537-.141-1.082-.292-1.519-.628-.436-.336-.336-.937-.209-1.459-.372.168-1.536-.353-1.645-.743-.318-1.149.555-1.344.573-1.742-.355-.017-1.082-.362-1.255-.672-.118-.22-.254-.45-.254-.707 0-1.945 1.681-1.512 9.245-1.512l.01.027Z"/> <path fill="#321242" d="m154.446 186.619-36.209 6.676v-12.742h-11.173v-2.776l11.173-9.328v-28.534h55.309l-19.1 46.704Z"/> <path fill="#DCCFEA" d="m46.345 32.502 36.21-6.676V38.56h11.172v2.776l-11.172 9.329v28.533h-55.31l19.1-46.695Z"/> <path fill="#fff" d="M150.146 174.728c8.56 0 15.5-6.75 15.5-15.076s-6.94-15.076-15.5-15.076c-8.561 0-15.5 6.75-15.5 15.076s6.939 15.076 15.5 15.076Z"/> <path fill="#B89FD4" d="M143.773 162.515v-11.557h13.209v11.716"/> <path fill="#4F1E68" d="M147.764 174.328c.218-.849.282-4.368.682-6.331a1.117 1.117 0 0 0-1.091-1.335h-2.473a1.106 1.106 0 0 1-1.109-1.115v-3.032l13.209.159.1 2.838a1.114 1.114 0 0 1-1.109 1.15h-2.182c-.7 0-1.227.645-1.091 1.335.4 1.963.464 5.491.682 6.331 0 0-.845.389-3.227.389-2.382 0-2.382-.389-2.382-.389h-.009Z"/> <path fill="#fff" d="M50.327 75.74c8.56 0 15.5-6.75 15.5-15.076s-6.94-15.076-15.5-15.076c-8.56 0-15.5 6.75-15.5 15.076s6.94 15.075 15.5 15.075Z"/> <path fill="#DAE0E8" d="M59.018 52.032H41.636a.681.681 0 0 0-.69.672V68.62c0 .371.309.672.69.672h17.382a.68.68 0 0 0 .691-.672V52.704a.682.682 0 0 0-.69-.672Z"/> <path fill="#4F1E68" d="M41.645 52.032h17.373c.382 0 .691.3.691.672v4.147H40.946v-4.147c0-.371.309-.672.69-.672h.01Z"/> <path fill="#321242" d="M109.991 119.571c0 2.149-4.473 3.891-9.991 3.891s-9.991-1.742-9.991-3.891v-4.553h19.982v4.553Z"/> <path fill="#37F826" d="M110.418 115.195c0 2.237-4.664 4.058-10.409 4.058-5.746 0-10.41-1.813-10.41-4.058v-4.74h20.828v4.74h-.009Z"/> <path fill="#321242" d="M109.991 113.71c0 2.149-4.473 3.891-9.991 3.891s-9.991-1.742-9.991-3.891v-4.554h19.982v4.554Z"/> <path fill="#37F826" d="M110.418 109.332c0 2.237-4.664 4.059-10.409 4.059-5.746 0-10.41-1.813-10.41-4.059v-4.739h20.828v4.739h-.009Z"/> <path fill="#321242" d="M109.991 108.156c0 2.149-4.473 3.891-9.991 3.891s-9.991-1.742-9.991-3.891v-4.553h19.982v4.553Z"/> <path fill="#fff" d="M100 107.493c5.518 0 9.991-1.742 9.991-3.891 0-2.148-4.473-3.89-9.991-3.89s-9.991 1.742-9.991 3.89c0 2.149 4.473 3.891 9.99 3.891Z"/> </svg> 