<svg xmlns="http://www.w3.org/2000/svg" width="200" height="212" fill="none" viewBox="0 0 200 212"> <path fill="#B89FD4" d="M100 211.573c55.183 0 99.918-44.735 99.918-99.917 0-55.183-44.735-99.918-99.918-99.918-55.182 0-99.917 44.735-99.917 99.918 0 55.182 44.735 99.917 99.917 99.917Z"/> <mask id="a" width="200" height="201" x="0" y="11" maskUnits="userSpaceOnUse" style="mask-type:luminance"> <path fill="#fff" d="M100 211.572c55.182 0 99.917-44.735 99.917-99.917 0-55.183-44.735-99.918-99.917-99.918-55.183 0-99.918 44.735-99.918 99.918 0 55.182 44.735 99.917 99.918 99.917Z"/> </mask> <g mask="url(#a)"> <path fill="#321242" d="M203.841 149.132H-6.358v75.265h210.199v-75.265Z"/> </g> <path fill="#F5B5BD" d="M65.566 123.283c-4.823 2.207-10.7 3.642-14.088 4.214-6.731 1.154-18.122 3.071-20.13-7.221-1.625-8.284 2.844-11.618 17.06-13.571 5.895-.808 10.936-.844 14.923-.09-4.45 1.026-12.29 3.815-10.337 10.418 1.845 6.204 8.512 6.613 12.563 6.25h.009Z"/> <path fill="#DD858C" d="m47.29 109.856-.464 1.754 19.366 5.114.464-1.753-19.366-5.115Z"/> <path fill="#F5C1B5" d="M74.595 114.553c.563 2.789-1.536 5.178-4.724 7.121a29.959 29.959 0 0 1-3.06 1.608c-4.052.363-10.72-.045-12.563-6.249-1.962-6.604 5.886-9.383 10.337-10.419 1.117.209 2.143.482 3.097.818 3.824 1.353 6.231 3.715 6.913 7.121Z"/> <path fill="#F5B5BD" d="M177.473 175.876c-18.33 22.073-45.98 36.125-76.909 36.125-2.09 0-4.16-.064-6.213-.191l-34.19-28.912 33.382-89.544s55.118 16.531 65.409 30.502c9.556 12.98 17.086 34.135 18.521 52.011v.009Z"/> <path fill="#F5B5BD" d="M27.433 67.791c5.932-8.465 20.375-.4 71.278 31.238 11.763 7.312 16.677 15.533 13.289 21.827-3.388 6.295-18.503-.563-24.216-3.86-45.735-26.35-68.208-37.987-60.35-49.214v.01Z"/> <path fill="#fff" stroke="#4F1E68" stroke-width="5.093" d="M141.612 3H60.161a6.676 6.676 0 0 0-6.676 6.676V176.22a6.676 6.676 0 0 0 6.676 6.676h81.451a6.676 6.676 0 0 0 6.676-6.676V9.676A6.676 6.676 0 0 0 141.612 3Z"/> <path fill="#DCCFEA" d="M146.271 149.134h-90.08c-.518-42.874-.418-43.291-.418-43.8V9.159a4.582 4.582 0 0 1 4.578-4.578h81.769a4.582 4.582 0 0 1 4.578 4.578v96.175c0 .509.1.926-.418 43.8h-.009Z"/> <path fill="#6C2B8C" d="M141.793 156.164H61.369v18.703h80.424v-18.703Z"/> <path fill="#000" d="m118.386 162.497 18.557.191 2.126 7.593-34.99.445 14.307-8.229Z"/> <path fill="#262627" d="m118.395 162.677 18.43.173 2.043 7.285-34.189.436 13.716-7.885m-.082-.327-14.824 8.53 35.788-.454-2.216-7.903-18.748-.173Z"/> <path fill="#F5B5BD" d="m169.788 152.94-22.1 42.355c-11.681-13.879-10.682-29.993-10.682-29.993l-16.123.245s-10.736 4.66-15.024 5.287c-10.291 1.499-15.877-1.644-17.33-4.887 4.368 1.19 9.637-1.426 13.415-3.96 4.86-3.261 6.768-11.691 7.194-13.916 6.223-3.679 12.236-6.613 15.242-6.513 8.875.291 29.331-.708 34.672 2.607 5.931 3.688 10.745 8.756 10.745 8.756l-.009.019Z"/> <path fill="#DD858C" d="m138.814 165.411-1.817-.109c-.018.236-.908 16.214 10.682 29.984l1.39-1.172c-11.046-13.116-10.274-28.558-10.265-28.712"/> <path fill="#F5B5BD" d="M109.139 148.079c-.427 2.226-2.325 10.655-7.194 13.916-3.779 2.534-9.047 5.15-13.416 3.96a4.595 4.595 0 0 1-.21-.554c-.435-1.426-.09-2.816.99-3.797 1.772-1.616 9.856-7.475 18.022-12.435.6-.372 1.208-.736 1.808-1.081v-.009ZM70.67 168.428c-.127 3.324-2.68 5.359-5.886 6.494-.663.236-1.354.436-2.053.59-3.733-.426-11.572-2.252-11.227-10.137.327-7.493 8.802-8.166 13.416-7.966 1.045.582 1.917 1.218 2.644 1.917 2.425 2.325 3.242 5.314 3.097 9.102h.009Z"/> <path fill="#F5B5BD" d="M51.496 165.373c-.346 7.884 7.493 9.71 11.227 10.137-3.152.727-6.567.745-8.802.354-7.276-1.253-19.584-4.45-18.358-15.051.981-8.493 8.72-8.929 21.555-6.122 3.261.709 5.823 1.608 7.785 2.707-4.624-.2-13.09.472-13.416 7.966l.009.009Zm9.382-30.336c-5.304-.109-13.715-1.681-17.013-2.625-6.567-1.881-16.722-4.787-14.06-14.933 2.134-8.166 9.164-9.229 22.817-4.815 5.659 1.835 10.218 3.988 13.489 6.395-4.46-1.008-12.726-1.908-13.835 4.896-1.026 6.386 4.796 9.647 8.602 11.082Z"/> <path fill="#F5B5BD" d="M71.678 130.558c-.708 2.753-3.633 3.997-7.348 4.36a28.61 28.61 0 0 1-3.452.119c-3.815-1.426-9.637-4.697-8.602-11.082 1.1-6.795 9.374-5.895 13.834-4.896a20.035 20.035 0 0 1 2.434 2.08c2.862 2.879 3.997 6.049 3.134 9.419Zm-20.446 13.806c-.972 5.904 3.724 9.056 7.466 10.61-4.696.091-9.819-.491-12.907-1.39-6.468-1.88-17.477-5.078-14.833-15.069 2.134-8.057 7.848-10.146 21.31-5.741 5.985 1.953 10.39 4.16 13.288 6.631-4.823-1.036-13.207-1.808-14.324 4.959Z"/> <path fill="#F5B5BD" d="M69.4 149.924c-.627 2.416-2.826 3.788-5.705 4.478-1.517.363-3.225.536-4.996.572-3.742-1.553-8.438-4.705-7.466-10.609 1.117-6.758 9.492-5.986 14.324-4.96 1.099.945 1.98 1.917 2.643 2.934 1.517 2.326 1.908 4.851 1.2 7.585Z"/> <path fill="#DD858C" d="m38.952 129.114-.363 1.79 19.638 3.951.354-1.781-19.629-3.96Zm6.285 22.391-.3 1.798 14.26 2.38.3-1.789-14.26-2.389Z"/> <path fill="#fff" d="M136.416 108.305H65.347l-2.725-2.725V34.511l2.725-2.725h71.069l2.725 2.725v71.069a3500.473 3500.473 0 0 0-2.725 2.725Z"/> <path fill="#37F826" d="M132.246 44.249H93.859v7.312h38.387V44.25Z"/> <path fill="#6C2B8C" d="M136.416 26.046H65.347l-2.725-2.725v-9.856l2.725-2.725h71.069l2.725 2.725v9.856l-2.725 2.725Z"/> <path fill="#F4F6FA" d="M62.631 63.016h76.51v42.573l-2.725 2.725H65.347l-2.725-2.725V63.016h.01Z"/> <path fill="#37F826" d="M77.973 57.448c5.489 0 9.938-4.45 9.938-9.938s-4.45-9.937-9.938-9.937-9.937 4.45-9.937 9.937c0 5.489 4.45 9.938 9.937 9.938Z"/> <mask id="b" width="20" height="21" x="68" y="37" maskUnits="userSpaceOnUse" style="mask-type:luminance"> <path fill="#fff" d="M77.973 57.448c5.488 0 9.937-4.45 9.937-9.938s-4.449-9.937-9.937-9.937c-5.488 0-9.937 4.45-9.937 9.937 0 5.489 4.449 9.938 9.937 9.938Z"/> </mask> <g mask="url(#b)"> <path fill="#fff" d="M73.604 49.455v-7.803h8.683l-.009 7.912"/> <path fill="#000" d="M76.229 57.438c.145-.572.19-2.952.445-4.278.091-.463-.254-.9-.718-.9H74.33c-.4 0-.726-.335-.735-.753v-2.053l8.674.11.064 1.916a.742.742 0 0 1-.727.78h-1.435c-.463 0-.808.437-.717.9.263 1.326.308 3.706.445 4.278 0 0-.554.264-2.117.264-1.562 0-1.562-.264-1.562-.264h.009Z"/> </g> <path fill="#C0C9DB" d="M72.387 80.257v-7.93c0-.382.218-.727.573-.89l4.705-2.18a.967.967 0 0 1 .808 0l4.932 2.198a.978.978 0 0 1 .582.9v7.91"/> <path fill="#F4F6FA" d="M76.693 75.906v4.35h2.961v-4.35h-2.961Z"/> <path fill="#C0C9DB" d="M83.47 87.742H72.886a.5.5 0 0 0-.5.5v9.955a.5.5 0 0 0 .5.5H83.47a.5.5 0 0 0 .5-.5v-9.955a.5.5 0 0 0-.5-.5Z"/> <path fill="#4F1E68" d="M72.887 87.742h10.591c.273 0 .5.227.5.5v2.57H72.397v-2.57c0-.273.227-.5.5-.5h-.01Z"/> <path fill="#C0C9DB" d="M132.246 72.081H93.859v7.312h38.387v-7.312Zm0 17.187H93.859v7.312h38.387v-7.312Z"/> </svg> 