<svg xmlns="http://www.w3.org/2000/svg" width="200" height="209" fill="none" viewBox="0 0 200 209"> <path fill="#B89FD4" d="M200 112.212c0-53.454-44.772-96.787-100-96.787S0 58.758 0 112.212c0 53.454 44.772 96.787 100 96.787s100-43.333 100-96.787Z"/> <mask id="a" width="200" height="194" x="0" y="15" maskUnits="userSpaceOnUse" style="mask-type:luminance"> <path fill="#fff" d="M200 112.212c0-53.454-44.772-96.787-100-96.787S0 58.758 0 112.212c0 53.454 44.772 96.787 100 96.787s100-43.333 100-96.787Z"/> </mask> <g mask="url(#a)"> <path fill="#321242" d="M205.181 147.616H-5.191v72.907H205.18v-72.907Z"/> <path fill="#4F1E68" d="M45.363 117.147h108.4c.673 0 1.218.528 1.218 1.179l-.036 65.665c0 .652-.546 1.179-1.218 1.179H51.481l-7.345-7.109v-59.744c0-.651.545-1.179 1.218-1.179l.01.009Z"/> <path fill="#fff" d="M44.144 112.378H154.99l-.037 68.033h-101.8l-9-8.711v-59.313l-.009-.009Z"/> <path fill="#C0C9DB" d="M142.245 128.093H84.727v7.083h57.518v-7.083Zm0 28.455H84.727v7.083h57.518v-7.083Zm-68.11-32.038c3.955 5.104 2.627 12.53-2.645 16.358-5.273 3.827-12.746 2.798-16.7-2.306-3.955-5.103-2.891-12.336 2.382-16.163 5.272-3.828 13.009-2.992 16.963 2.111Z"/> <mask id="b" width="25" height="24" x="52" y="120" maskUnits="userSpaceOnUse" style="mask-type:luminance"> <path fill="#fff" d="M74.135 124.51c3.955 5.103 2.627 12.529-2.645 16.357-5.273 3.827-12.746 2.798-16.7-2.306-3.955-5.103-2.891-12.336 2.382-16.163 5.272-3.828 13.009-2.992 16.963 2.112Z"/> </mask> <g mask="url(#b)"> <path fill="#fff" d="M59.262 134.013v-9.344H70v9.476"/> <path fill="#4F1E68" d="M62.508 143.568c.173-.686.227-3.537.555-5.121a.905.905 0 0 0-.891-1.082h-2.01c-.5 0-.9-.405-.9-.897v-2.455l10.728.132.082 2.296a.9.9 0 0 1-.9.933h-1.773c-.573 0-1 .519-.89 1.082.326 1.584.38 4.435.554 5.121 0 0-.682.317-2.618.317-1.937 0-1.937-.317-1.937-.317v-.009Z"/> </g> <path fill="#C0C9DB" d="M74.135 153.01c3.955 5.104 2.628 12.53-2.645 16.358-5.273 3.827-12.745 2.798-16.7-2.306-3.955-5.103-2.891-12.336 2.382-16.163 5.273-3.828 13.009-2.992 16.963 2.111Z"/> <path fill="#fff" d="M71 153.958H58.58c-.276 0-.5.217-.5.484v11.315c0 .267.224.484.5.484H71c.276 0 .5-.217.5-.484v-11.315a.492.492 0 0 0-.5-.484Z"/> <path fill="#4F1E68" d="M58.58 153.958h12.428c.273 0 .5.22.5.484v2.956H58.09v-2.956c0-.264.227-.484.5-.484h-.01Z"/> </g> <path fill="#fff" d="M44.226 14.712h101.446c3.563 3.45 5.554 5.376 9.118 8.825v88.842H44.226V14.712Z"/> <path fill="#37F826" d="M169.899 17.088c0 7.884-7.009 14.272-15.154 14.272-8.146 0-14.746-6.388-14.746-14.272s6.6-14.272 14.746-14.272c8.145 0 15.154 6.388 15.154 14.272Z"/> <path fill="#000" d="m147.072 15.75 5.882 8.033L166.39 8.042l-.664-.634-12.645 10.427-5.254-2.886-.746.8h-.009Z"/> <mask id="c" width="111" height="113" x="44" y="0" maskUnits="userSpaceOnUse" style="mask-type:luminance"> <path fill="#fff" d="M154.881 0H44.227v112.379H154.88V0Z"/> </mask> <g mask="url(#c)"> <path fill="#F5B5BD" d="m114.572 62.39-.055-15.398-32.1.264.246 14.782s3.7 9.406 8.127 12.046c4.836 2.886 9.382 3.088 13.627 1.126 5.255-2.42 10.155-12.82 10.155-12.82Z"/> <path fill="#6C2B8C" d="M98.509 165.106h-42.3l.654-51.675-11.045 4.338-21.146-15.372 11.382-18.882c3.21-4.558 7.855-7.98 13.246-9.767l26.181-8.016c3.828-.334 6.755-3.431 6.764-7.144C85.672 70.114 93.527 73.299 98.4 73.299c4.863 0 12.727-3.185 16.154-14.711 0 3.713 2.936 6.81 6.764 7.144l26.182 8.016c5.391 1.786 10.036 5.21 13.245 9.767l11.382 18.882-21.146 15.372-11.045-4.338.655 51.675h-42.3"/> <path fill="#DD858C" d="M84.2 47.448c1.71 5.763 7.81 13.735 14.283 13.735 6.472 0 12.536-8.43 14.127-14.193l-28.41.449v.009Z"/> <path fill="#F5B5BD" d="M77.255 22.442v5.94s-.027.967.418 6.58c1.127 14.334 13.773 21.699 20.6 21.699 6.827 0 19.473-7.365 20.6-21.698.555-7.083.491-6.52.491-6.52s-.091-.598-.091-5.807c0-4.91-4.554-21.98-20.963-21.98-16.41 0-21.046 15.134-21.046 21.786h-.009Z"/> <path fill="#DD858C" d="M107.493 28.913c.645.053 1.234-.662 1.316-1.597.081-.934-.376-1.735-1.022-1.787-.645-.053-1.234.662-1.316 1.597-.081.934.376 1.735 1.022 1.787Zm-18.402 0c-.645.053-1.234-.662-1.316-1.597-.08-.934.376-1.735 1.022-1.787.645-.053 1.234.662 1.316 1.597.081.934-.376 1.735-1.022 1.787Z"/> <path stroke="#DD858C" stroke-miterlimit="10" stroke-width="2.325" d="M93.11 41.737c2.918 1.231 8.363 1.108 11.054-.326m-5.872-15.415c-1.037 3.088-3.264 10.013-3.264 10.013s4.227.625 5.927.748"/> <path fill="#F5B5BD" d="M123.337 28.628c-.446 2.903-3.046 6.995-5.446 6.651-2.4-.343-3.672-4.989-3.236-7.892.445-2.904 2.745-4.98 5.136-4.637 2.391.343 3.982 2.974 3.546 5.869v.009Zm-50.154 0c.445 2.903 3.045 6.995 5.445 6.651 2.4-.343 3.673-4.989 3.236-7.892-.445-2.904-2.745-4.98-5.136-4.637-2.39.343-3.982 2.974-3.545 5.869v.009Z"/> <path fill="#321242" d="M119.572 27.378c-4.909-3.765-8.627-11.966-8.327-18.565-3.773 5.2-14.927 9.168-20.946 9.494 2.528-3.608 6.255-8.13 5.982-11.184-7.218 5.737-15.882 10.005-19.036 19.12-.036.115.018.106 0-.008-.082-.45.2-1.268 0-2.341C77.263 7.159 83.145.656 97.772.656c17.6 0 21.8 6.441 21.8 23.29 0 0 .046.67 0 2.473.046-.044 0 .96 0 .96Z"/> <path fill="#F4F6FA" d="m57.39 129.466 14.146-31.324 53.254-.563 14.737 30.787c.727 1.584.927 3.3.936 5.025l1.218 31.71h-86.09l.726-30.655c0-1.715.364-3.414 1.073-4.98Z"/> <path fill="#fff" d="M73.817 66.165c1.082 4.83 4.737 21.073 7.219 31.869l-9.491.106-6.455-29.318a1.254 1.254 0 0 1 .837-1.452l6.181-2.12c.746-.256 1.546.175 1.71.923v-.008Zm48.909 0a7172.956 7172.956 0 0 1-7.218 31.869l9.491.106 6.455-29.318a1.255 1.255 0 0 0-.837-1.452l-6.181-2.12c-.746-.256-1.546.175-1.71.923v-.008Z"/> <path fill="#C0C9DB" d="M108.344 112.412h-17.99l-1.864-1.804v-5.13l1.863-1.803h17.991l1.864 1.803v5.13l-1.864 1.804Z"/> <path fill="#F5C1B5" d="m150.99 117.761 14.018 12.899-34.7 31.052c-1.709 1.434-2.137 3.836-1.018 5.736l3.9 6.608c.845 1.435 2.427 2.314 4.136 2.306l3.427-.018 3.655-12.134s26.727-15.107 36.191-22.023c7.018-5.13 9.027-12.811 4.136-21.258l-12.6-18.531-21.145 15.372v-.009Zm-105.164 0L31.808 130.66l34.7 31.052c1.71 1.434 2.136 3.836 1.018 5.736l-3.9 6.608c-.845 1.435-2.427 2.314-4.136 2.306l-3.427-.018-3.655-12.134s-26.727-15.107-36.19-22.023c-7.02-5.13-9.028-12.811-4.137-21.258l12.6-18.531 21.145 15.372v-.009Z"/> </g> </svg> 