<svg xmlns="http://www.w3.org/2000/svg" width="120" height="120" fill="none" viewBox="0 0 120 120"> <clipPath id="a"> <path d="M20 20h80v80H20z"/> </clipPath> <path fill="#f4f6fa" d="M108.532 23.285c19.748 26.423 13.121 64.896-13.195 84.738-26.315 19.829-63.656 14.496-83.404-11.927C-7.816 69.672-2.504 32.178 23.81 12.349c26.316-19.83 64.96-15.487 84.721 10.936z"/> <g clip-path="url(#a)"> <path fill="#37f826" d="M78.453 88.267c6.707 0 12.143-5.436 12.143-12.143S85.16 63.981 78.453 63.981 66.31 69.417 66.31 76.124s5.436 12.143 12.143 12.143z"/> <path fill="#313133" d="M99.846 93.14a1.292 1.292 0 0 1-1.273.702l-5.203-.399-.733 5.165a1.325 1.325 0 0 1-2.347.644l-7.713-9.608c-.026-.032-.044-.068-.067-.102-1.15.32-2.355.504-3.605.504-1.062 0-2.09-.136-3.083-.37l-7.687 9.576a1.328 1.328 0 0 1-2.346-.644l-.735-5.165-5.202.4a1.292 1.292 0 0 1-1.274-.703 1.324 1.324 0 0 1 .139-1.449l7.713-9.608c.04-.05.087-.091.131-.133a13.377 13.377 0 0 1-1.124-5.372c0-7.428 6.041-13.47 13.469-13.47s13.468 6.042 13.468 13.47c0 1.796-.36 3.508-1.001 5.077.237.077.455.22.622.428l7.713 9.608c.331.413.385.982.138 1.449zM73.17 88.746a13.537 13.537 0 0 1-5.203-4.34l-5.266 6.56 3.39-.261a1.313 1.313 0 0 1 1.414 1.135l.48 3.366zm5.737-1.35c5.964 0 10.817-4.854 10.817-10.818S84.87 65.76 78.906 65.76s-10.818 4.853-10.818 10.818 4.852 10.817 10.818 10.817zm16.82 3.57L90.134 84a13.553 13.553 0 0 1-5.05 4.532l5.358 6.674.478-3.366a1.314 1.314 0 0 1 1.414-1.135zM84.133 71.114l-7.612 7.612-2.23-2.228a1.326 1.326 0 0 0-1.873 1.874l3.166 3.166a1.323 1.323 0 0 0 1.875 0l8.549-8.548a1.326 1.326 0 1 0-1.875-1.876z"/> <path fill="#fff" d="M24.336 81.393c.278.135.585.206.895.206H64.4c-2.386-9.6 1.94-14.82 4.4-16.23-2.892-.755-5.632-1.694-6.793-2.921-1.624-1.718.66-5.921 3-9.864.792-1.625 2.375-6.202 2.375-11.515l-.07-5.423S67.477 24 54.004 24h-.002C40.53 24 40.693 35.646 40.693 35.646l-.075 5.424c-.059 4.187.91 8.033 2.314 11.79 2.19 3.91 4.278 8.005 2.826 9.589-2.78 3.03-13.34 4.048-15.48 5.172-1.153.604-2.384 1.666-3.38 3.017a19.95 19.95 0 0 0-1.777 2.958l-.056.11c-.07.143-.137.29-.203.434-.553 1.171-1.159 3.266-1.596 4.938a1.994 1.994 0 0 0 .358 1.739c.19.243.433.44.712.576z"/> <path fill="#313133" fill-rule="evenodd" d="M38.64 35.64v-.034c0-.03 0-.073.002-.125.002-.105.008-.25.02-.432.026-.362.078-.868.187-1.47.216-1.201.662-2.818 1.59-4.448 1.91-3.357 5.734-6.531 13.021-6.531h.002c7.288 0 11.111 3.174 13.021 6.53.928 1.63 1.374 3.248 1.59 4.448.108.603.16 1.11.186 1.471a9.73 9.73 0 0 1 .022.557v.035l.071 5.419v.009c0 5.555-1.658 10.342-2.537 12.132l-.026.052-.03.05c-1.186 1.981-2.288 3.917-2.904 5.543-.308.814-.458 1.459-.473 1.936-.015.46.095.628.164.7.39.41 1.196.883 2.439 1.368 1.2.468 2.645.887 4.157 1.268l-.684 2.715c-1.556-.392-3.131-.844-4.491-1.375-1.318-.514-2.612-1.168-3.448-2.044-.75-.787-.966-1.788-.936-2.723.03-.917.296-1.892.654-2.837.71-1.874 1.924-3.99 3.089-5.937.726-1.505 2.224-5.827 2.226-10.839l-.07-5.433v-.025c0-.013 0-.036-.002-.07a6.935 6.935 0 0 0-.015-.307c-.019-.275-.06-.679-.148-1.167-.177-.984-.538-2.278-1.267-3.56-1.404-2.466-4.29-5.115-10.588-5.115h-.002c-6.298 0-9.184 2.649-10.588 5.115-.729 1.282-1.09 2.576-1.268 3.56-.088.489-.129.892-.148 1.167a7.131 7.131 0 0 0-.016.377v.027l-.076 5.444c-.055 3.915.847 7.547 2.206 11.177 1.082 1.92 2.191 3.978 2.845 5.783.332.916.58 1.853.614 2.728.034.879-.145 1.854-.854 2.621-.932 1.007-2.381 1.732-3.851 2.288-1.512.571-3.243 1.034-4.903 1.425-1.04.246-2.098.473-3.063.68-.558.12-1.085.233-1.56.339a34.15 34.15 0 0 0-1.707.417c-.487.137-.772.244-.907.314-.95.495-2.034 1.405-2.929 2.607a18.515 18.515 0 0 0-1.662 2.745l-.005.009-.054.106c-.062.129-.125.261-.188.398l-.003.007-.003.007c-.493 1.035-1.074 3.004-1.52 4.694v.003a.577.577 0 0 0 .108.513c.058.075.135.137.226.181s.192.067.295.067l40.11.001V83h-40.11a3.493 3.493 0 0 1-1.513-.347 3.458 3.458 0 0 1-1.21-.971 3.384 3.384 0 0 1-.613-2.962c.436-1.651 1.074-3.866 1.695-5.175.068-.146.14-.3.214-.453l.006-.01.057-.113a21.325 21.325 0 0 1 1.913-3.157l.007-.01c1.114-1.497 2.51-2.708 3.886-3.423.405-.211.924-.381 1.443-.527.54-.152 1.174-.302 1.853-.454a195.67 195.67 0 0 1 1.637-.356c.94-.201 1.932-.414 2.955-.655 1.622-.382 3.214-.812 4.554-1.32 1.383-.522 2.315-1.06 2.786-1.569M38.64 35.64l-.076 5.41c-.062 4.424.972 8.451 2.423 12.304l.038.1.053.095c1.108 1.963 2.13 3.869 2.704 5.455.288.794.43 1.422.449 1.883.017.455-.089.586-.113.611" clip-rule="evenodd"/> </g> </svg> 