<svg xmlns="http://www.w3.org/2000/svg" xmlns:xlink="http://www.w3.org/1999/xlink" width="120" height="120" fill="none" viewBox="0 0 120 120"> <defs> <path id="a" d="m34.556 93.287-.988-3.04c-.106-.329-.572-.329-.677 0l-.988 3.04a.356.356 0 0 1-.34.246h-3.195a.357.357 0 0 0-.21.645l2.586 1.879a.357.357 0 0 1 .13.399l-.988 3.04a.357.357 0 0 0 .548.4l2.586-1.88a.358.358 0 0 1 .42 0l2.585 1.88a.357.357 0 0 0 .549-.4l-.988-3.04a.355.355 0 0 1 .13-.399l2.585-1.879a.357.357 0 0 0-.21-.645h-3.196a.356.356 0 0 1-.34-.246zm13.188 0-.988-3.04c-.107-.329-.572-.329-.676 0l-.988 3.04a.356.356 0 0 1-.34.246h-3.196a.357.357 0 0 0-.21.645l2.587 1.879a.358.358 0 0 1 .129.399l-.988 3.04a.357.357 0 0 0 .549.4l2.585-1.88a.358.358 0 0 1 .42 0l2.585 1.88a.357.357 0 0 0 .55-.4l-.989-3.04a.356.356 0 0 1 .13-.399l2.585-1.879a.357.357 0 0 0-.21-.645h-3.195a.356.356 0 0 1-.34-.246zm13.188 0-.988-3.04c-.106-.329-.572-.329-.677 0l-.988 3.04a.356.356 0 0 1-.339.246h-3.196a.357.357 0 0 0-.21.645l2.586 1.879a.357.357 0 0 1 .13.399l-.988 3.04a.357.357 0 0 0 .548.4l2.586-1.88a.358.358 0 0 1 .42 0l2.585 1.88a.357.357 0 0 0 .549-.4l-.988-3.04a.355.355 0 0 1 .13-.399l2.585-1.879a.357.357 0 0 0-.21-.645h-3.196a.356.356 0 0 1-.34-.246zm13.156 0-.988-3.04c-.107-.329-.572-.329-.675 0l-.988 3.04a.356.356 0 0 1-.34.246h-3.196a.357.357 0 0 0-.21.645l2.586 1.879a.358.358 0 0 1 .13.399l-.988 3.04a.357.357 0 0 0 .549.4l2.585-1.88a.358.358 0 0 1 .42 0l2.585 1.88a.357.357 0 0 0 .549-.4l-.988-3.04a.356.356 0 0 1 .13-.399l2.585-1.879a.357.357 0 0 0-.21-.645h-3.196a.356.356 0 0 1-.34-.246zm13.262.044-.988-3.04c-.107-.328-.571-.328-.676 0l-.988 3.04a.356.356 0 0 1-.34.246h-3.196a.357.357 0 0 0-.209.646L83.54 96.1a.357.357 0 0 1 .129.4l-.988 3.04a.357.357 0 0 0 .549.398l2.585-1.878a.357.357 0 0 1 .42 0l2.585 1.878a.357.357 0 0 0 .55-.398l-.989-3.04a.356.356 0 0 1 .13-.4l2.585-1.878a.357.357 0 0 0-.209-.646H87.69a.356.356 0 0 1-.34-.246z"/> </defs> <mask id="b" width="66" height="13" x="27.012" y="89" fill="#000" maskUnits="userSpaceOnUse"> <path fill="#fff" d="M27.012 89h66v13h-66z"/> <use xlink:href="#a"/> </mask> <path fill="#f4f6fa" d="M108.532 23.284c19.748 26.422 13.121 64.894-13.195 84.735-26.315 19.828-63.656 14.495-83.404-11.927C-7.816 69.67-2.504 32.177 23.81 12.348 50.127-7.48 88.771-3.138 108.532 23.284z"/> <path fill="#eef0f4" stroke="#313133" stroke-width="3" d="m30.584 80.74-1.41-.001a.674.674 0 0 1-.652-.846v-.002c.474-1.827 1.091-3.957 1.615-5.078l.003-.007.004-.007c.067-.149.133-.292.2-.431l.053-.107.004-.009.004-.008a20.11 20.11 0 0 1 1.766-2.97c.951-1.3 2.1-2.282 3.105-2.814h.001c.14-.075.44-.19.957-.338.493-.141 1.102-.29 1.809-.45.504-.115 1.062-.237 1.654-.366a165.74 165.74 0 0 0 3.253-.735c1.762-.423 3.6-.923 5.206-1.542 1.563-.601 3.104-1.386 4.093-2.475.75-.825.937-1.871.901-2.813-.036-.938-.297-1.947-.649-2.936-.693-1.948-1.87-4.17-3.018-6.247-1.443-3.924-2.403-7.855-2.345-12.093l.081-5.86v-.05a7.693 7.693 0 0 1 .017-.41c.021-.298.065-.736.158-1.266.189-1.066.574-2.468 1.35-3.855a9.882 9.882 0 0 1 3.668-3.764c1.747-1.024 4.168-1.76 7.55-1.76 3.381 0 5.803.736 7.55 1.76a9.88 9.88 0 0 1 3.668 3.764c.776 1.387 1.16 2.79 1.349 3.855a12 12 0 0 1 .157 1.266 7.693 7.693 0 0 1 .018.41v.048l.075 5.85c-.002 5.424-1.595 10.1-2.366 11.728-1.237 2.105-2.525 4.39-3.277 6.413-.38 1.02-.66 2.068-.692 3.054-.031 1 .195 2.074.989 2.922.968 1.034 2.53 1.792 4.102 2.381 1.628.61 3.51 1.123 5.317 1.564 1.136.278 2.287.536 3.336.772.605.136 1.176.264 1.691.384.72.168 1.34.32 1.836.463.524.15.812.261.931.324 1.008.535 2.163 1.517 3.112 2.816.63.879 1.187 1.807 1.666 2.776l.003.006.004.01.014.03.012.027.014.027c.647 1.277 1.385 3.73 1.923 5.75a.67.67 0 0 1-.654.84z"/> <path fill="#37f826" d="m34.556 93.287-.988-3.04c-.106-.329-.572-.329-.677 0l-.988 3.04a.356.356 0 0 1-.34.246h-3.195a.357.357 0 0 0-.21.645l2.586 1.879a.357.357 0 0 1 .13.399l-.988 3.04a.357.357 0 0 0 .548.4l2.586-1.88a.358.358 0 0 1 .42 0l2.585 1.88a.357.357 0 0 0 .549-.4l-.988-3.04a.355.355 0 0 1 .13-.399l2.585-1.879a.357.357 0 0 0-.21-.645h-3.196a.356.356 0 0 1-.34-.246zm13.188 0-.988-3.04c-.107-.329-.572-.329-.676 0l-.988 3.04a.356.356 0 0 1-.34.246h-3.196a.357.357 0 0 0-.21.645l2.587 1.879a.358.358 0 0 1 .129.399l-.988 3.04a.357.357 0 0 0 .549.4l2.585-1.88a.358.358 0 0 1 .42 0l2.585 1.88a.357.357 0 0 0 .55-.4l-.989-3.04a.356.356 0 0 1 .13-.399l2.585-1.879a.357.357 0 0 0-.21-.645h-3.195a.356.356 0 0 1-.34-.246zm13.188 0-.988-3.04c-.106-.329-.572-.329-.677 0l-.988 3.04a.356.356 0 0 1-.339.246h-3.196a.357.357 0 0 0-.21.645l2.586 1.879a.357.357 0 0 1 .13.399l-.988 3.04a.357.357 0 0 0 .548.4l2.586-1.88a.358.358 0 0 1 .42 0l2.585 1.88a.357.357 0 0 0 .549-.4l-.988-3.04a.355.355 0 0 1 .13-.399l2.585-1.879a.357.357 0 0 0-.21-.645h-3.196a.356.356 0 0 1-.34-.246zm13.156 0-.988-3.04c-.107-.329-.572-.329-.675 0l-.988 3.04a.356.356 0 0 1-.34.246h-3.196a.357.357 0 0 0-.21.645l2.586 1.879a.358.358 0 0 1 .13.399l-.988 3.04a.357.357 0 0 0 .549.4l2.585-1.88a.358.358 0 0 1 .42 0l2.585 1.88a.357.357 0 0 0 .549-.4l-.988-3.04a.356.356 0 0 1 .13-.399l2.585-1.879a.357.357 0 0 0-.21-.645h-3.196a.356.356 0 0 1-.34-.246zm13.262.044-.988-3.04c-.107-.328-.571-.328-.676 0l-.988 3.04a.356.356 0 0 1-.34.246h-3.196a.357.357 0 0 0-.209.646L83.54 96.1a.357.357 0 0 1 .129.4l-.988 3.04a.357.357 0 0 0 .549.398l2.585-1.878a.357.357 0 0 1 .42 0l2.585 1.878a.357.357 0 0 0 .55-.398l-.989-3.04a.356.356 0 0 1 .13-.4l2.585-1.878a.357.357 0 0 0-.209-.646H87.69a.356.356 0 0 1-.34-.246z"/> <use xlink:href="#a" stroke="#313133" stroke-width="2" mask="url(#b)"/> </svg> 