<svg xmlns="http://www.w3.org/2000/svg" width="121" height="120" fill="none" viewBox="0 0 121 120"> <path fill="#f4f6fa" d="M109.515 23.284c19.748 26.422 13.121 64.893-13.195 84.734-26.315 19.829-63.656 14.496-83.404-11.926C-6.833 69.67-1.521 32.177 24.794 12.348 51.11-7.48 89.754-3.138 109.515 23.284z"/> <path fill="#eef0f4" fill-rule="evenodd" d="M89.714 58.052H55.748a2.398 2.398 0 0 0-2.398 2.398v17.262h38.762V60.45a2.398 2.398 0 0 0-2.398-2.397zm-29.011 7.992a1.439 1.439 0 1 1 0-2.717 1.438 1.438 0 0 1 0 2.797zm5.834 5.994a1.439 1.439 0 1 1-.673-2.798 1.439 1.439 0 0 1 .673 2.798zm5.914-5.914a1.439 1.439 0 1 1-.673-2.798 1.439 1.439 0 0 1 .673 2.798zm5.914 5.914a1.44 1.44 0 1 1-.673-2.8 1.44 1.44 0 0 1 .673 2.8zm5.915-5.914a1.44 1.44 0 1 1-.674-2.8 1.44 1.44 0 0 1 .674 2.8zM42.162 50.22H23.38l1.92-18.781h14.865l1.918 18.78z" clip-rule="evenodd"/> <path fill="#313133" fill-rule="evenodd" d="M100.903 67.722c0-1.918-1.598-3.436-3.517-3.436H94.03c-.4 0-.8 0-1.119.16v-3.437a4.298 4.298 0 0 0-4.316-4.316H56.148c-2.398 0-4.236 1.918-4.236 4.316v3.357h-4.555c-1.918 0-3.437 1.598-3.437 3.436v17.822h3.836v1.439h-1.598v2.397h5.674v-2.397h-1.678v-1.439h44.915v1.439H93.39v2.397h5.754v-2.397h-1.758v-1.439h3.596V67.722zm-49.07 9.83v5.675h-5.675V67.722c0-.64.48-1.119 1.119-1.119h3.356c.64 0 1.2.48 1.2 1.12zm2.317 5.595V78.75h36.363v4.476H54.15zm36.363-6.634H54.15V61.01c0-1.119.799-1.998 1.918-1.998h32.527c1.12 0 1.998.88 1.998 1.998v15.345zm2.398 2.238V67.722c0-.64.48-1.119 1.119-1.119h3.356c.64 0 1.2.48 1.2 1.12v15.504H92.91zm-19.42-14.225a1.439 1.439 0 1 1-2.799.673 1.439 1.439 0 0 1 2.798-.673zm5.913 5.914a1.439 1.439 0 1 1-2.798.673 1.439 1.439 0 0 1 2.798-.673zm-11.828 0a1.439 1.439 0 1 1-2.798.673 1.439 1.439 0 0 1 2.798-.673zm-5.834-5.914a1.438 1.438 0 1 1-2.795.673 1.438 1.438 0 0 1 2.795-.673zm23.657 0a1.439 1.439 0 1 1-2.799.673 1.439 1.439 0 0 1 2.799-.673zM42.322 51.099 40.164 30H23.14l-2.158 21.099h9.51v36.364h-4.395v2.317h11.189v-2.397H32.81V51.179h9.59zm-5.355-18.781h1.199l1.678 16.463h-2.877zM26.577 48.78H23.54l1.679-16.463h1.358zm1.519 0V32.318h2.877V48.78h-2.957zm4.475-16.463h2.798V48.78H32.49V32.318z" clip-rule="evenodd"/> <path fill="#37f826" d="M38.166 32.318h-1.199V48.78h2.877zM23.54 48.781h3.038V32.318h-1.36zm4.556-16.463V48.78h2.877V32.318zm7.273 0H32.49V48.78h2.878z"/> </svg> 