<svg xmlns="http://www.w3.org/2000/svg" width="120" height="120" fill="none" viewBox="0 0 120 120"> <path fill="#f4f6fa" d="M108.532 23.285c19.748 26.423 13.121 64.895-13.195 84.737-26.315 19.83-63.656 14.496-83.404-11.927C-7.816 69.672-2.504 32.178 23.81 12.348c26.316-19.83 64.96-15.487 84.721 10.936z"/> <path fill="#37f826" d="M27.501 53.492a2.61 2.61 0 0 1 2.61-2.61h13.048a2.61 2.61 0 0 1 2.61 2.61v33.055a2.61 2.61 0 0 1-2.61 2.61H30.11a2.61 2.61 0 0 1-2.61-2.61z"/> <path fill="#313133" fill-rule="evenodd" d="M43.159 53.492H30.11v33.055h13.048zm-13.048-2.61a2.61 2.61 0 0 0-2.61 2.61v33.055a2.61 2.61 0 0 0 2.61 2.61h13.048a2.61 2.61 0 0 0 2.61-2.61V53.492a2.61 2.61 0 0 0-2.61-2.61z" clip-rule="evenodd"/> <path fill="#eef0f4" d="M63.724 40.245c-6.448 8.574-11.297 10.977-16.666 12.165-1.241.274-2.16 1.347-2.16 2.617v27.908c0 1.441 1.142 2.87 2.377 3.613.936.563 1.941 1.153 3.002 1.153h28.43c5.379 0 9.605-9.347 14.6-25.525.983-3.185-1.665-9.348-4.61-9.348h-8.725c-1.873 0-3.097-1.897-2.4-3.635 1.088-2.714 2.288-6.252 2.288-8.948 0-11.505-1.921-15.46-8.452-15.46s-1.936 7.815-7.684 15.46z"/> <path fill="#313133" fill-rule="evenodd" d="M68.477 30.52c-.354 2.813-.843 6.694-3.71 10.506-3.28 4.362-6.204 7.223-9.048 9.149-2.86 1.936-5.578 2.886-8.378 3.505-.685.152-1.137.726-1.137 1.344V82.93c0 .38.155.842.49 1.322.333.476.79.894 1.255 1.174 1.002.603 1.693.966 2.33.966h28.43c.93 0 1.901-.394 2.965-1.37 1.08-.99 2.186-2.523 3.33-4.64 2.287-4.238 4.561-10.512 7.057-18.596.356-1.152.074-3.132-.767-4.93-.407-.869-.9-1.595-1.404-2.083-.514-.499-.923-.645-1.193-.645h-8.724c-2.842 0-4.634-2.873-3.611-5.425 1.091-2.722 2.194-6.047 2.194-8.463 0-5.763-.497-9.322-1.623-11.429-.535-1.001-1.2-1.649-2.033-2.066-.856-.429-1.98-.66-3.491-.66-1.34 0-1.802.376-2.068.768-.377.557-.574 1.457-.774 2.963-.03.226-.06.46-.09.704zm-1.296-5.13c.89-1.312 2.302-1.913 4.228-1.913 1.754 0 3.32.264 4.66.936 1.366.684 2.405 1.744 3.166 3.17 1.468 2.746 1.93 6.917 1.93 12.658 0 2.977-1.296 6.729-2.38 9.434-.371.924.285 1.845 1.188 1.845h8.724c1.204 0 2.23.624 3.01 1.38.79.767 1.45 1.781 1.95 2.851.974 2.08 1.525 4.774.898 6.806-2.5 8.094-4.835 14.583-7.255 19.065-1.21 2.24-2.48 4.056-3.861 5.324-1.398 1.282-2.971 2.057-4.73 2.057h-28.43c-1.45 0-2.741-.778-3.61-1.301l-.065-.04a6.852 6.852 0 0 1-2.05-1.916c-.544-.78-.96-1.754-.96-2.815V55.024c0-1.924 1.386-3.494 3.183-3.892 2.569-.568 4.96-1.413 7.479-3.118 2.534-1.717 5.259-4.345 8.426-8.557 2.435-3.238 2.85-6.48 3.21-9.299.029-.231.058-.46.088-.685.186-1.403.423-2.935 1.201-4.083z" clip-rule="evenodd"/> </svg> 