<svg xmlns="http://www.w3.org/2000/svg" width="120" height="120" fill="none" viewBox="0 0 120 120"> <path fill="#f4f6fa" d="M108.532 23.285c19.748 26.423 13.121 64.895-13.195 84.737-26.315 19.83-63.656 14.496-83.404-11.927C-7.816 69.672-2.504 32.178 23.81 12.348c26.316-19.83 64.96-15.487 84.721 10.936z"/> <path fill="#eef0f4" d="M21.154 88.898c.283.14.595.212.91.212h58.473a2.061 2.061 0 0 0 1.997-2.587c-.506-1.9-1.24-4.372-1.932-5.74-.013-.027-.025-.055-.038-.08a20.317 20.317 0 0 0-1.705-2.842c-1.013-1.388-2.27-2.476-3.443-3.097-2.034-1.079-13.26-2.407-15.976-5.308-1.65-1.763.67-6.076 3.05-10.123.804-1.667 2.412-6.364 2.412-11.817l-.07-5.565S64.998 30 51.305 30h-.001c-13.692 0-13.525 11.95-13.525 11.95l-.077 5.566c-.06 4.298.925 8.244 2.352 12.1 2.225 4.013 4.347 8.214 2.871 9.84-2.825 3.11-13.557 4.154-15.731 5.308-1.173.62-2.423 1.71-3.436 3.096a20.519 20.519 0 0 0-1.806 3.036l-.056.112c-.071.148-.14.297-.207.446-.562 1.202-1.177 3.352-1.622 5.068a2.066 2.066 0 0 0 1.087 2.375z"/> <path fill="#313133" fill-rule="evenodd" d="M23.283 86.11h56.026c-.452-1.582-.96-3.136-1.383-3.97l-.028-.054-.025-.055-.008-.018a17.33 17.33 0 0 0-1.436-2.393c-.778-1.061-1.697-1.823-2.416-2.205m0 0a7.269 7.269 0 0 0-.582-.186 36.31 36.31 0 0 0-1.668-.42 226.1 226.1 0 0 0-1.565-.356c-1.009-.227-2.137-.48-3.225-.746-1.736-.423-3.594-.928-5.229-1.54-1.524-.571-3.308-1.394-4.493-2.66-1.132-1.208-1.402-2.692-1.364-3.902.037-1.18.368-2.359.755-3.4.761-2.046 2.034-4.3 3.193-6.276.657-1.418 2.064-5.576 2.067-10.394l-.071-5.586v-.06a5.785 5.785 0 0 0-.013-.249 9.848 9.848 0 0 0-.129-1.034c-.158-.892-.477-2.045-1.104-3.167a7.808 7.808 0 0 0-2.907-2.984c-1.38-.81-3.396-1.455-6.372-1.455h-.001c-2.976 0-4.992.645-6.373 1.455s-2.29 1.88-2.907 2.984c-.627 1.123-.946 2.275-1.104 3.167-.078.44-.114.8-.13 1.035a5.834 5.834 0 0 0-.012.248v.062l-.077 5.608c-.052 3.727.78 7.225 2.088 10.807 1.072 1.94 2.22 4.11 2.914 6.06.358 1.008.663 2.137.706 3.257.043 1.125-.173 2.59-1.263 3.79-1.198 1.319-2.953 2.172-4.488 2.763-1.622.624-3.448 1.119-5.143 1.526-1.06.254-2.166.496-3.153.712-.556.121-1.074.235-1.525.337-.664.151-1.209.284-1.635.406a5.953 5.953 0 0 0-.603.198h-.003c-.713.379-1.628 1.138-2.41 2.206a17.527 17.527 0 0 0-1.534 2.582l-.01.018-.052.105c-.055.115-.111.238-.171.37l-.007.014-.006.015c-.333.712-.744 2.014-1.124 3.386m-2.129 2.787a2.066 2.066 0 0 1-1.087-2.375c.445-1.716 1.06-3.866 1.622-5.069.067-.148.136-.298.207-.445l.056-.113a20.519 20.519 0 0 1 1.806-3.035c1.013-1.387 2.263-2.476 3.436-3.097.745-.395 2.496-.777 4.59-1.235 4.013-.876 9.285-2.028 11.141-4.072 1.476-1.626-.646-5.827-2.871-9.84-1.427-3.856-2.411-7.802-2.352-12.1l.077-5.566S37.612 30 51.305 30h.001C65 30 64.831 41.95 64.831 41.95l.071 5.565c0 5.453-1.608 10.15-2.412 11.817-2.38 4.047-4.7 8.36-3.05 10.123 1.786 1.907 7.25 3.134 11.361 4.058 2.143.481 3.918.88 4.615 1.25 1.173.621 2.43 1.71 3.443 3.097.644.9 1.215 1.85 1.705 2.841l.028.06.01.022c.693 1.366 1.427 3.84 1.932 5.739a2.061 2.061 0 0 1-1.997 2.588H22.064c-.315 0-.626-.074-.91-.213z" clip-rule="evenodd"/> <path fill="#fff" d="M72.658 34.554h-.001c-3.053 0-5.265.724-6.868 1.78C66.693 43.054 67.5 57.7 63.5 62.5s-2.333 6.667-1 7c3.667.833 11.2 2.5 12 2.5 1 0 8.324 4 9 11h13.115a1.69 1.69 0 0 0 1.637-2.121c-.414-1.557-1.016-3.584-1.584-4.704-.01-.022-.02-.045-.031-.066a16.642 16.642 0 0 0-1.397-2.329c-.83-1.137-1.861-2.03-2.822-2.539-1.667-.884-10.867-1.972-13.093-4.35-1.354-1.444.55-4.98 2.499-8.296.659-1.366 1.977-5.216 1.977-9.685l-.058-4.561S86 34.554 72.658 34.554z"/> <path fill="#37f826" fill-rule="evenodd" d="M73.723 34.553c-3.427 0-5.572.962-6.945 2.126l-1.94-2.288c1.992-1.689 4.855-2.837 8.885-2.837h.001c3.098 0 5.515.678 7.383 1.774a10.572 10.572 0 0 1 3.915 4.01 12.585 12.585 0 0 1 1.376 3.92c.094.53.14.976.161 1.297a8.86 8.86 0 0 1 .02.497v.029l.06 4.669v.01c0 4.83-1.415 8.996-2.175 10.572l-.027.055-.03.053c-1.005 1.709-1.925 3.357-2.437 4.731-.256.688-.372 1.212-.383 1.58-.006.176.014.283.03.339.015.046.027.06.03.063.317.338 1.048.767 2.25 1.217 1.146.43 2.523.809 3.932 1.153.89.217 1.75.41 2.565.593.49.11.963.216 1.416.322.586.136 1.133.27 1.595.403.436.124.9.276 1.263.468 1.21.641 2.432 1.716 3.399 3.042l.007.01a18.556 18.556 0 0 1 1.593 2.67l.005.01c.659 1.314 1.303 3.519 1.718 5.08.549 2.059-1.012 4.058-3.126 4.058H83.113v-3h15.151a.23.23 0 0 0 .228-.286c-.43-1.616-1.012-3.541-1.511-4.526l-.014-.027-.013-.028-.011-.026-.001-.002a15.564 15.564 0 0 0-1.302-2.17c-.733-1.002-1.62-1.753-2.377-2.154-.065-.035-.268-.116-.684-.235a31.224 31.224 0 0 0-1.45-.366c-.405-.094-.859-.196-1.34-.304-.839-.189-1.763-.397-2.67-.618-1.446-.353-2.96-.765-4.275-1.258-1.26-.472-2.562-1.096-3.386-1.975-.706-.754-.897-1.7-.87-2.548.026-.832.263-1.704.57-2.53.61-1.638 1.646-3.477 2.629-5.15.6-1.273 1.85-4.947 1.852-9.207l-.06-4.683v-.021a4.317 4.317 0 0 0-.013-.308 9.256 9.256 0 0 0-.122-.976 9.586 9.586 0 0 0-1.041-2.979 7.574 7.574 0 0 0-2.814-2.887c-1.339-.785-3.215-1.362-5.865-1.362z" clip-rule="evenodd"/> </svg> 